<svg width="24" height="24" viewBox="0 0 24 24" fill="none" xmlns="http://www.w3.org/2000/svg">
<path d="M7.0798 6.6073C3.71635 6.60738 1.20221 9.3606 1.01294 12.4277C1.13011 13.0886 1.51521 14.3936 2.11829 14.3266C2.87214 14.2428 4.77073 14.3266 6.39011 11.3949C7.57307 9.25337 10.0065 6.60723 7.0798 6.6073Z" fill="url(#paint0_radial_353_13971)"/>
<path d="M6.30207 7.75192C5.17149 9.54196 3.64962 12.1069 3.13599 12.914C2.52544 13.8734 0.908507 13.4659 1.04245 12.0906C1.02925 12.2023 1.01911 12.3148 1.01211 12.4281C0.790922 16.006 3.6277 18.9774 7.15772 18.9774C11.0483 18.9774 20.327 14.1298 19.388 9.27286C18.3983 6.41783 15.6165 4.37006 12.4639 4.37006C9.31135 4.37006 7.29088 6.18632 6.30207 7.75192Z" fill="url(#paint1_radial_353_13971)"/>
<path d="M6.30207 7.75192C5.17149 9.54196 3.64962 12.1069 3.13599 12.914C2.52544 13.8734 0.908507 13.4659 1.04245 12.0906C1.02925 12.2023 1.01911 12.3148 1.01211 12.4281C0.790922 16.006 3.6277 18.9774 7.15772 18.9774C11.0483 18.9774 20.327 14.1298 19.388 9.27286C18.3983 6.41783 15.6165 4.37006 12.4639 4.37006C9.31135 4.37006 7.29088 6.18632 6.30207 7.75192Z" fill="url(#paint2_radial_353_13971)" fill-opacity="0.4"/>
<path d="M6.30207 7.75192C5.17149 9.54196 3.64962 12.1069 3.13599 12.914C2.52544 13.8734 0.908507 13.4659 1.04245 12.0906C1.02925 12.2023 1.01911 12.3148 1.01211 12.4281C0.790922 16.006 3.6277 18.9774 7.15772 18.9774C11.0483 18.9774 20.327 14.1298 19.388 9.27286C18.3983 6.41783 15.6165 4.37006 12.4639 4.37006C9.31135 4.37006 7.29088 6.18632 6.30207 7.75192Z" fill="url(#paint3_radial_353_13971)"/>
<path d="M6.30207 7.75192C5.17149 9.54196 3.64962 12.1069 3.13599 12.914C2.52544 13.8734 0.908507 13.4659 1.04245 12.0906C1.02925 12.2023 1.01911 12.3148 1.01211 12.4281C0.790922 16.006 3.6277 18.9774 7.15772 18.9774C11.0483 18.9774 20.327 14.1298 19.388 9.27286C18.3983 6.41783 15.6165 4.37006 12.4639 4.37006C9.31135 4.37006 7.29088 6.18632 6.30207 7.75192Z" fill="url(#paint4_radial_353_13971)" fill-opacity="0.6"/>
<path d="M6.30207 7.75192C5.17149 9.54196 3.64962 12.1069 3.13599 12.914C2.52544 13.8734 0.908507 13.4659 1.04245 12.0906C1.02925 12.2023 1.01911 12.3148 1.01211 12.4281C0.790922 16.006 3.6277 18.9774 7.15772 18.9774C11.0483 18.9774 20.327 14.1298 19.388 9.27286C18.3983 6.41783 15.6165 4.37006 12.4639 4.37006C9.31135 4.37006 7.29088 6.18632 6.30207 7.75192Z" fill="url(#paint5_radial_353_13971)" fill-opacity="0.9"/>
<path d="M7.10092 18.9786C7.10092 18.9786 16.3905 18.9969 17.9662 18.9969C20.8258 18.9969 23 16.6623 23 13.9381C23 11.2139 20.7822 8.89343 17.9663 8.89343C15.1503 8.89343 13.5287 11.0001 12.3108 13.2996C10.8835 15.9942 9.06292 18.9463 7.10092 18.9786Z" fill="url(#paint6_linear_353_13971)"/>
<path d="M7.10092 18.9786C7.10092 18.9786 16.3905 18.9969 17.9662 18.9969C20.8258 18.9969 23 16.6623 23 13.9381C23 11.2139 20.7822 8.89343 17.9663 8.89343C15.1503 8.89343 13.5287 11.0001 12.3108 13.2996C10.8835 15.9942 9.06292 18.9463 7.10092 18.9786Z" fill="url(#paint7_radial_353_13971)" fill-opacity="0.4"/>
<path d="M7.10092 18.9786C7.10092 18.9786 16.3905 18.9969 17.9662 18.9969C20.8258 18.9969 23 16.6623 23 13.9381C23 11.2139 20.7822 8.89343 17.9663 8.89343C15.1503 8.89343 13.5287 11.0001 12.3108 13.2996C10.8835 15.9942 9.06292 18.9463 7.10092 18.9786Z" fill="url(#paint8_radial_353_13971)" fill-opacity="0.9"/>
<defs>
<radialGradient id="paint0_radial_353_13971" cx="0" cy="0" r="1" gradientUnits="userSpaceOnUse" gradientTransform="translate(1.43007 7.41116) rotate(50.1526) scale(6.93403 11.5014)">
<stop stop-color="#4894FE"/>
<stop offset="0.695072" stop-color="#0934B3"/>
</radialGradient>
<radialGradient id="paint1_radial_353_13971" cx="0" cy="0" r="1" gradientUnits="userSpaceOnUse" gradientTransform="translate(20.0448 -0.572531) rotate(130.923) scale(29.817 22.0946)">
<stop offset="0.165327" stop-color="#23C0FE"/>
<stop offset="0.534" stop-color="#1C91FF"/>
</radialGradient>
<radialGradient id="paint2_radial_353_13971" cx="0" cy="0" r="1" gradientUnits="userSpaceOnUse" gradientTransform="translate(5.92949 7.80565) rotate(-139.986) scale(6.06208 13.8774)">
<stop stop-color="white"/>
<stop offset="0.660528" stop-color="#ADC0FF" stop-opacity="0"/>
</radialGradient>
<radialGradient id="paint3_radial_353_13971" cx="0" cy="0" r="1" gradientUnits="userSpaceOnUse" gradientTransform="translate(12.5213 14.9706) rotate(-139.764) scale(6.83283 10.3772)">
<stop stop-color="#033ACC"/>
<stop offset="1" stop-color="#368EFF" stop-opacity="0"/>
</radialGradient>
<radialGradient id="paint4_radial_353_13971" cx="0" cy="0" r="1" gradientUnits="userSpaceOnUse" gradientTransform="translate(5.52825 3.90792) rotate(66.5713) scale(14.9928 16.1856)">
<stop offset="0.592618" stop-color="#3464E3" stop-opacity="0"/>
<stop offset="1" stop-color="#033ACC"/>
</radialGradient>
<radialGradient id="paint5_radial_353_13971" cx="0" cy="0" r="1" gradientUnits="userSpaceOnUse" gradientTransform="translate(19.8044 0.98461) rotate(135) scale(22.054 34.5511)">
<stop stop-color="#4BFDE8"/>
<stop offset="0.543937" stop-color="#4BFDE8" stop-opacity="0"/>
</radialGradient>
<linearGradient id="paint6_linear_353_13971" x1="15.0554" y1="18.9867" x2="15.0554" y2="9.01327" gradientUnits="userSpaceOnUse">
<stop stop-color="#0086FF"/>
<stop offset="0.49" stop-color="#00BBFF"/>
</linearGradient>
<radialGradient id="paint7_radial_353_13971" cx="0" cy="0" r="1" gradientUnits="userSpaceOnUse" gradientTransform="translate(9.84377 10.0817) rotate(21.6324) scale(9.99348 18.9243)">
<stop stop-color="white"/>
<stop offset="0.785262" stop-color="white" stop-opacity="0"/>
</radialGradient>
<radialGradient id="paint8_radial_353_13971" cx="0" cy="0" r="1" gradientUnits="userSpaceOnUse" gradientTransform="translate(22.6892 8.11035) rotate(139.243) scale(13.7008 13.7473)">
<stop stop-color="#4BFDE8"/>
<stop offset="0.584724" stop-color="#4BFDE8" stop-opacity="0"/>
</radialGradient>
</defs>
</svg>
