<svg width="28" height="28" viewBox="0 0 28 28" fill="none" xmlns="http://www.w3.org/2000/svg">
<path d="M13.9999 25.2508C20.2131 25.2508 25.2499 20.2135 25.2499 13.9998C25.2499 7.78602 20.2131 2.74878 13.9999 2.74878C7.78669 2.74878 2.74989 7.78602 2.74989 13.9998C2.74989 20.2135 7.78669 25.2508 13.9999 25.2508Z" fill="url(#paint0_linear_353_14413)"/>
<path d="M13.9999 25.2508C20.2131 25.2508 25.2499 20.2135 25.2499 13.9998C25.2499 7.78602 20.2131 2.74878 13.9999 2.74878C7.78669 2.74878 2.74989 7.78602 2.74989 13.9998C2.74989 20.2135 7.78669 25.2508 13.9999 25.2508Z" fill="url(#paint1_radial_353_14413)"/>
<path d="M13.9999 25.2508C20.2131 25.2508 25.2499 20.2135 25.2499 13.9998C25.2499 7.78602 20.2131 2.74878 13.9999 2.74878C7.78669 2.74878 2.74989 7.78602 2.74989 13.9998C2.74989 20.2135 7.78669 25.2508 13.9999 25.2508Z" fill="url(#paint2_radial_353_14413)" fill-opacity="0.5"/>
<path d="M13.9993 2.74896C20.2125 2.74896 25.2493 7.78619 25.2493 13.9999C25.2493 16.0611 24.6924 17.9909 23.7249 19.6523L24.0091 19.0234C25.0725 16.6624 23.3456 13.9903 20.7562 13.9902H15.9163C14.8526 13.9902 13.9906 13.1272 13.9915 12.0634L13.9954 7.24506C13.9976 4.65232 11.3209 2.92337 8.95831 3.99115L8.39972 4.2431C10.049 3.29426 11.9601 2.74905 13.9993 2.74896Z" fill="url(#paint3_linear_353_14413)"/>
<path d="M13.9993 2.74896C20.2125 2.74896 25.2493 7.78619 25.2493 13.9999C25.2493 16.0611 24.6924 17.9909 23.7249 19.6523L24.0091 19.0234C25.0725 16.6624 23.3456 13.9903 20.7562 13.9902H15.9163C14.8526 13.9902 13.9906 13.1272 13.9915 12.0634L13.9954 7.24506C13.9976 4.65232 11.3209 2.92337 8.95831 3.99115L8.39972 4.2431C10.049 3.29426 11.9601 2.74905 13.9993 2.74896Z" fill="url(#paint4_radial_353_14413)"/>
<path d="M13.9993 2.74896C20.2125 2.74896 25.2493 7.78619 25.2493 13.9999C25.2493 16.0611 24.6924 17.9909 23.7249 19.6523L24.0091 19.0234C25.0725 16.6624 23.3456 13.9903 20.7562 13.9902H15.9163C14.8526 13.9902 13.9906 13.1272 13.9915 12.0634L13.9954 7.24506C13.9976 4.65232 11.3209 2.92337 8.95831 3.99115L8.39972 4.2431C10.049 3.29426 11.9601 2.74905 13.9993 2.74896Z" fill="url(#paint5_radial_353_14413)" fill-opacity="0.8"/>
<path d="M13.9993 2.74896C20.2125 2.74896 25.2493 7.78619 25.2493 13.9999C25.2493 16.0611 24.6924 17.9909 23.7249 19.6523L24.0091 19.0234C25.0725 16.6624 23.3456 13.9903 20.7562 13.9902H15.9163C14.8526 13.9902 13.9906 13.1272 13.9915 12.0634L13.9954 7.24506C13.9976 4.65232 11.3209 2.92337 8.95831 3.99115L8.39972 4.2431C10.049 3.29426 11.9601 2.74905 13.9993 2.74896Z" fill="url(#paint6_radial_353_14413)"/>
<path d="M13.9993 2.74896C20.2125 2.74896 25.2493 7.78619 25.2493 13.9999C25.2493 16.0611 24.6924 17.9909 23.7249 19.6523L24.0091 19.0234C25.0725 16.6624 23.3456 13.9903 20.7562 13.9902H15.9163C14.8526 13.9902 13.9906 13.1272 13.9915 12.0634L13.9954 7.24506C13.9976 4.65232 11.3209 2.92337 8.95831 3.99115L8.39972 4.2431C10.049 3.29426 11.9601 2.74905 13.9993 2.74896Z" fill="url(#paint7_radial_353_14413)"/>
<path d="M9.75 13H4.25C3.00736 13 2 14.0074 2 15.25V20.75C2 21.9926 3.00736 23 4.25 23H9.75C10.9926 23 12 21.9926 12 20.75V15.25C12 14.0074 10.9926 13 9.75 13Z" fill="url(#paint8_radial_353_14413)"/>
<path d="M9.75 13H4.25C3.00736 13 2 14.0074 2 15.25V20.75C2 21.9926 3.00736 23 4.25 23H9.75C10.9926 23 12 21.9926 12 20.75V15.25C12 14.0074 10.9926 13 9.75 13Z" fill="url(#paint9_radial_353_14413)" fill-opacity="0.3"/>
<path d="M6.16084 19.046V21H4.81238V15H6.8956C7.6415 15 8.20927 15.1632 8.59892 15.4895C8.99135 15.8159 9.18757 16.2999 9.18757 16.9414C9.18757 17.6025 8.9677 18.1185 8.52795 18.4895C8.09099 18.8605 7.50373 19.046 6.76619 19.046H6.16084ZM6.16084 16.0377V18.0084H6.72444C7.05842 18.0084 7.31587 17.9205 7.49678 17.7448C7.67768 17.569 7.76814 17.3166 7.76814 16.9874C7.76814 16.6834 7.67907 16.4491 7.50095 16.2845C7.32561 16.1199 7.07373 16.0377 6.74531 16.0377H6.16084Z" fill="white"/>
<defs>
<linearGradient id="paint0_linear_353_14413" x1="12.8584" y1="2.03251" x2="-0.926262" y2="15.2197" gradientUnits="userSpaceOnUse">
<stop offset="0.0582736" stop-color="#FF7F48"/>
<stop offset="1" stop-color="#E5495B"/>
</linearGradient>
<radialGradient id="paint1_radial_353_14413" cx="0" cy="0" r="1" gradientUnits="userSpaceOnUse" gradientTransform="translate(18.447 9.27783) rotate(135) scale(22.5892 38.0206)">
<stop offset="0.151523" stop-color="#AA1D2D"/>
<stop offset="0.380855" stop-color="#D12B18" stop-opacity="0.44"/>
<stop offset="0.601996" stop-color="#FF3C00" stop-opacity="0"/>
</radialGradient>
<radialGradient id="paint2_radial_353_14413" cx="0" cy="0" r="1" gradientUnits="userSpaceOnUse" gradientTransform="translate(-1.17688 23.1454) rotate(-25.2832) scale(21.4134 38.7935)">
<stop offset="0.4067" stop-color="#FF66FB"/>
<stop offset="1" stop-color="#EA3D01" stop-opacity="0"/>
</radialGradient>
<linearGradient id="paint3_linear_353_14413" x1="16.146" y1="16.4911" x2="28.2405" y2="7.53603" gradientUnits="userSpaceOnUse">
<stop offset="0.310768" stop-color="#FF6E30"/>
<stop offset="0.634576" stop-color="#FFA05C"/>
</linearGradient>
<radialGradient id="paint4_radial_353_14413" cx="0" cy="0" r="1" gradientUnits="userSpaceOnUse" gradientTransform="translate(12.134 15.3339) rotate(11.8464) scale(14.5176 13.853)">
<stop offset="0.78593" stop-color="#FFA05C" stop-opacity="0"/>
<stop offset="0.904889" stop-color="#FFCE84"/>
</radialGradient>
<radialGradient id="paint5_radial_353_14413" cx="0" cy="0" r="1" gradientUnits="userSpaceOnUse" gradientTransform="translate(14.4114 13.8211) rotate(-33.2239) scale(14.663 14.028)">
<stop offset="0.295239" stop-color="#FF99E9"/>
<stop offset="0.727968" stop-color="#FF99E9" stop-opacity="0"/>
</radialGradient>
<radialGradient id="paint6_radial_353_14413" cx="0" cy="0" r="1" gradientUnits="userSpaceOnUse" gradientTransform="translate(12.7654 15.5372) rotate(-48.8924) scale(15.6158 14.2597)">
<stop stop-color="#FD6EF9"/>
<stop offset="0.637205" stop-color="#FF9944"/>
<stop offset="0.85186" stop-color="#FCC479"/>
</radialGradient>
<radialGradient id="paint7_radial_353_14413" cx="0" cy="0" r="1" gradientUnits="userSpaceOnUse" gradientTransform="translate(11.7439 4.23454) rotate(98.3867) scale(7.95134 17.953)">
<stop offset="0.144283" stop-color="#FF8D13"/>
<stop offset="0.537266" stop-color="#FF7F29" stop-opacity="0"/>
</radialGradient>
<radialGradient id="paint8_radial_353_14413" cx="0" cy="0" r="1" gradientUnits="userSpaceOnUse" gradientTransform="translate(1.99878 13) rotate(45) scale(14.1421)">
<stop stop-color="#F8193E"/>
<stop offset="0.939062" stop-color="#920616"/>
</radialGradient>
<radialGradient id="paint9_radial_353_14413" cx="0" cy="0" r="1" gradientUnits="userSpaceOnUse" gradientTransform="translate(6.99878 19) rotate(90) scale(7 7.96875)">
<stop offset="0.575893" stop-color="#FFB055" stop-opacity="0"/>
<stop offset="0.973806" stop-color="#FFF2BE"/>
</radialGradient>
</defs>
</svg>
