<svg xmlns="http://www.w3.org/2000/svg" viewBox="0 0 24 24"><title>Sway_24x</title><path d="M23,3V17l-8,1.5L7,17V3A1,1,0,0,1,8,2H22A1,1,0,0,1,23,3Z" fill="#37c6d0"/><circle cx="18.5" cy="5.5" r="1.5" fill="#86f2f2"/><path d="M23,13.98V17l-.75,2.48H8.5l1.85-1.85,2.71-2.71,4.55-4.55a1.255,1.255,0,0,1,1.78,0Z" fill="#038387"/><path d="M7,17H23a0,0,0,0,1,0,0v4a1,1,0,0,1-1,1H8a1,1,0,0,1-1-1V17A0,0,0,0,1,7,17Z" fill="#036c70"/><rect width="24" height="24" fill="none"/><path d="M12.939,7H7V19h5.612A1.486,1.486,0,0,0,14,17.647V8A1.035,1.035,0,0,0,12.939,7Z" opacity="0.5"/><rect x="1" y="6" width="12" height="12" rx="1.11" fill="#038387"/><path d="M5.012,11.85a2.256,2.256,0,0,1-.7-.742,2.015,2.015,0,0,1-.245-1.015A1.955,1.955,0,0,1,4.52,8.778,2.676,2.676,0,0,1,5.728,7.99,5.1,5.1,0,0,1,7.38,7.733a6.279,6.279,0,0,1,2.175.305V9.575a3.382,3.382,0,0,0-.984-.4A4.779,4.779,0,0,0,7.42,9.034a2.488,2.488,0,0,0-1.182.25.777.777,0,0,0-.469.711.72.72,0,0,0,.2.5,1.8,1.8,0,0,0,.535.383q.338.167,1,.443a1.133,1.133,0,0,1,.144.057,8.192,8.192,0,0,1,1.266.625,2.261,2.261,0,0,1,.748.753A2.19,2.19,0,0,1,9.935,13.9a2.113,2.113,0,0,1-.426,1.369,2.387,2.387,0,0,1-1.14.766,5.161,5.161,0,0,1-1.622.236,8.61,8.61,0,0,1-1.47-.121A5.075,5.075,0,0,1,4.083,15.8V14.178a3.81,3.81,0,0,0,1.208.575,4.71,4.71,0,0,0,1.329.213,2.287,2.287,0,0,0,1.206-.256.808.808,0,0,0,.405-.722A.767.767,0,0,0,8,13.436,2.288,2.288,0,0,0,7.377,13q-.4-.2-1.183-.529A6.717,6.717,0,0,1,5.012,11.85Z" fill="#fff"/></svg>