<svg width="24" height="24" viewBox="0 0 24 24" fill="none" xmlns="http://www.w3.org/2000/svg">
<path d="M6 0C9.3137 0 12 2.68629 12 6L12 14H0L0 6C0 2.68629 2.68629 0 6 0Z" fill="#0472D8"/>
<path d="M18 0C14.6863 0 12 2.68629 12 6L12 14H24V6C24 2.68629 21.3137 0 18 0Z" fill="#2596FF"/>
<path d="M18 10C18 6.68629 15.3137 4 12 4C8.68629 4 6 6.68629 6 10C6 13.3137 8.68629 16 12 16C15.3137 16 18 13.3137 18 10Z" fill="#56C5FF"/>
<path d="M23.995 5.75391C23.8459 9.11811 20.746 11.8361 16.875 12.0013C13.619 12.0678 11 14.7281 11 18C11 21.2719 13.619 23.9322 16.875 23.9987V24C17.1271 24 17.3784 23.9935 17.6293 23.9674C22.9706 23.4944 24 17.9906 24 15.375V6C24 5.91757 23.9983 5.83553 23.995 5.75391Z" fill="#0472D8"/>
<path d="M0 6V15.375C0 17.9906 1.02942 23.4944 6.37068 23.9674C6.62162 23.9935 6.87293 24 7.125 24V23.9987C10.381 23.9322 13 21.2719 13 18C13 14.7281 10.381 12.0678 7.125 12.0013V12C3.25401 11.8348 0.154719 9.11811 0.00561701 5.75391C0.00232425 5.83553 0 5.91757 0 6Z" fill="#0C4497"/>
</svg>
