<svg xmlns="http://www.w3.org/2000/svg" viewBox="0 0 80 80" fill="none">
  <path d="M0.941162 40.4708C0.941162 29.555 9.79012 20.7061 20.7059 20.7061H50.3529C55.8109 20.7061 60.2353 25.13 60.2353 30.5884C60.2353 36.0469 55.8109 40.4708 50.3529 40.4708H30.5882C25.1302 40.4708 20.7059 44.8947 20.7059 50.3531C20.7059 55.8116 25.1302 60.2355 30.5882 60.2355H60.2353C60.2353 71.1512 51.3863 80.0002 40.4706 80.0002H20.7059C9.79012 80.0002 0.941162 71.1512 0.941162 60.2355V40.4708Z" fill="url(#paint0_linear_104_2884)"/>
  <path d="M79.9999 40.4708C79.9999 51.3866 71.151 60.2355 60.2352 60.2355H30.5882C25.1302 60.2355 20.7058 55.8116 20.7058 50.3532C20.7058 44.8947 25.1302 40.4708 30.5882 40.4708H50.3529C55.8108 40.4708 60.2352 36.0469 60.2352 30.5885C60.2352 25.13 55.8108 20.7061 50.3529 20.7061L20.7058 20.7061C20.7058 9.79036 29.5548 0.941405 40.4705 0.941406L60.2352 0.941408C71.151 0.941409 79.9999 9.79037 79.9999 20.7061L79.9999 40.4708Z" fill="url(#paint1_linear_104_2884)"/>
  <defs>
    <linearGradient id="paint0_linear_104_2884" x1="7.24129" y1="27.7355" x2="51.8937" y2="76.5307" gradientUnits="userSpaceOnUse">
      <stop stop-color="#0669BC"/>
      <stop offset="1" stop-color="#0D3766"/>
    </linearGradient>
    <linearGradient id="paint1_linear_104_2884" x1="28.3493" y1="5.96871" x2="72.3479" y2="55.6976" gradientUnits="userSpaceOnUse">
      <stop stop-color="#6BD6F6"/>
      <stop offset="1" stop-color="#1489CE"/>
    </linearGradient>
  </defs>
</svg>